<?xml version="1.0" encoding="utf-8"?>
<!-- Generator: Adobe Illustrator 16.0.4, SVG Export Plug-In . SVG Version: 6.00 Build 0)  -->
<!DOCTYPE svg PUBLIC "-//W3C//DTD SVG 1.1//EN" "http://www.w3.org/Graphics/SVG/1.1/DTD/svg11.dtd">
<svg version="1.1" id="final" xmlns="http://www.w3.org/2000/svg" xmlns:xlink="http://www.w3.org/1999/xlink" x="0px" y="0px"
	 width="465.229px" height="66.045px" viewBox="0 0 465.229 66.045" enable-background="new 0 0 465.229 66.045"
	 xml:space="preserve">
<rect x="-157.274" y="-252.227" fill="none" stroke="#FFFFFF" stroke-width="0.25" width="792" height="612"/>
<path fill="#FFFFFF" d="M465.229,6.138c0.025-3.367-2.682-6.115-6.047-6.138c-3.361-0.03-6.104,2.676-6.131,6.038v6.141
	c0,0,6.006,0,6.035,0C462.45,12.205,465.202,9.502,465.229,6.138z"/>
<path fill="#FFFFFF" d="M441.282,4.768c-2.922,1.658-3.949,5.375-2.291,8.306c1.656,2.926,5.371,3.948,8.301,2.294l5.315-3.07
	c0,0-3.004-5.204-3.019-5.23C447.926,4.139,444.209,3.112,441.282,4.768z"/>
<path fill="#FFFFFF" d="M452.075,26.187c2.898,1.706,6.627,0.738,8.338-2.163c1.703-2.898,0.731-6.629-2.164-8.334l-5.318-3.068
	c0,0-3.006,5.202-3.021,5.232C448.204,20.75,449.173,24.483,452.075,26.187z"/>
<g>
	<path fill="#FFFFFF" d="M261.774,8.297h-15.855v48.227h7.2V42.122h8.588c10.309,0,17.509-7.466,17.509-16.915
		C279.215,15.692,272.015,8.297,261.774,8.297z M261.247,35.45h-8.128V14.904h8.128c6.606,0,10.769,4.488,10.769,10.303
		C272.015,30.953,267.853,35.45,261.247,35.45z"/>
	<path fill="#FFFFFF" d="M389.624,22.402c-9.629-0.031-17.273,7.612-17.203,17.206c0.064,9.591,7.615,17.13,17.157,17.128
		c9.554,0,17.18-7.561,17.224-17.077C406.848,30.041,399.27,22.43,389.624,22.402z M389.622,50.013
		c-5.914-0.07-9.961-4.699-10.029-10.504c-0.061-5.711,4.568-10.42,9.988-10.412c5.518,0.005,10.07,4.773,10.039,10.522
		C399.595,45.311,395.092,50.079,389.622,50.013z"/>
	<path fill="#FFFFFF" d="M348.012,34.486c-0.248-5.945-3.9-10.611-10.117-11.818c-8.712-1.687-13.088,4.263-13.088,4.263
		c-0.063-1.373-0.099-2.622-0.152-3.794h-6.947v32.851h7.229V36.629c0.268-6.043,5.638-9.467,11.571-7.334
		c2.996,1.076,4.233,3.696,4.307,6.685v20.033h7.456c0,0,0.005-0.637,0-0.916C348.208,48.227,348.293,41.348,348.012,34.486z"/>
	<path fill="#FFFFFF" d="M440.883,55.096c-0.062-6.869,0.023-13.748-0.256-20.609c-0.248-5.945-3.901-10.611-10.117-11.818
		c-8.713-1.687-13.092,4.263-13.092,4.263c-0.061-1.373-0.094-2.622-0.148-3.794h-6.947v32.851h7.229V36.629
		c0.268-6.043,5.639-9.467,11.57-7.334c2.998,1.076,4.232,3.696,4.309,6.685v20.033h7.453
		C440.883,56.012,440.887,55.375,440.883,55.096z"/>
	<path fill="#FFFFFF" d="M363.413,45.671c-0.104-0.781-0.209-1.569-0.215-2.356c-0.025-4.2,0-13.829,0-13.829h6.879V23.01h-6.941
		V11.344l-7.291,3.956v7.773h-5.42v6.42h5.515v1.85c0,3.51-0.037,7.017,0.015,10.524c0.023,1.877,0.087,3.757,0.316,5.614
		c0.381,3.007,1.475,5.671,4.382,7.13c2.96,1.489,6.14,1.579,9.458,1.423v-6.64c-1.596-0.086-2.132-0.15-3.018-0.232
		C364.766,48.941,363.723,47.956,363.413,45.671z"/>
	<path fill="#FFFFFF" d="M294.164,22.59c-14.305,2.153-18.285,18.008-11.384,27.486c5.778,7.933,17.884,8.287,24.169,3.839
		c1.764-1.248,3.276-2.704,4.469-4.527l-5.932-3.28c-2.977,3.881-7.017,5.012-11.968,3.777c-3.712-0.927-6.39-3.981-6.931-7.818
		h27.017c0.3-2.294,0.146-4.405-0.284-6.479C311.505,26.848,303.89,21.129,294.164,22.59z M287.026,35.819
		c0.673-3.834,4.763-6.883,9.164-7.07c5.831-0.249,9.378,3.22,10.005,7.07H287.026z"/>
</g>
<g>
	<path fill="#FFFFFF" d="M0,24.521h9.649c6.96,0,11.617,2.352,11.617,9.265c0,6.625-4.705,9.745-11.617,9.745H3.984v12.481H0V24.521
		z M9.169,40.267c5.472,0,8.113-2.017,8.113-6.481c0-4.56-2.688-6.048-8.113-6.048H3.984v12.529H9.169z"/>
	<path fill="#FFFFFF" d="M35.185,32.105c5.712,0,10.801,4.464,10.801,12.289c0,7.729-5.088,12.193-10.801,12.193
		c-5.713,0-10.801-4.464-10.801-12.193C24.384,36.57,29.472,32.105,35.185,32.105z M35.185,53.323c4.032,0,6.72-3.6,6.72-8.929
		c0-5.376-2.688-9.024-6.72-9.024c-3.984,0-6.721,3.648-6.721,9.024C28.464,49.723,31.201,53.323,35.185,53.323z"/>
	<path fill="#FFFFFF" d="M49.152,32.682h4.032l3.456,13.489c0.528,2.208,0.96,4.32,1.392,6.48h0.192
		c0.528-2.16,1.008-4.32,1.584-6.48l3.6-13.489h3.84l3.648,13.489c0.576,2.208,1.104,4.32,1.632,6.48h0.192
		c0.528-2.16,0.96-4.272,1.44-6.48l3.408-13.489h3.745l-6.241,23.33h-4.8l-3.36-12.529c-0.576-2.208-1.008-4.368-1.584-6.72h-0.192
		c-0.528,2.352-1.008,4.56-1.632,6.769l-3.264,12.481h-4.608L49.152,32.682z"/>
	<path fill="#FFFFFF" d="M94.944,32.105c5.953,0,9.313,4.272,9.313,10.945c0,0.816-0.048,1.584-0.144,2.16H88.368
		c0.288,5.04,3.312,8.208,7.776,8.208c2.208,0,4.081-0.72,5.809-1.824l1.392,2.592c-2.016,1.297-4.512,2.4-7.681,2.4
		c-6.24,0-11.185-4.561-11.185-12.193C84.479,36.762,89.616,32.105,94.944,32.105z M100.801,42.619c0-4.752-2.112-7.393-5.761-7.393
		c-3.264,0-6.241,2.688-6.721,7.393H100.801z"/>
	<path fill="#FFFFFF" d="M110.015,32.682h3.264l0.336,4.225h0.144c1.584-2.928,3.984-4.801,6.625-4.801
		c1.008,0,1.728,0.144,2.496,0.48l-0.768,3.456c-0.768-0.24-1.296-0.384-2.256-0.384c-1.968,0-4.32,1.44-5.905,5.376v14.978h-3.936
		V32.682z"/>
	<path fill="#FFFFFF" d="M134.927,32.105c5.953,0,9.313,4.272,9.313,10.945c0,0.816-0.048,1.584-0.144,2.16h-15.745
		c0.288,5.04,3.312,8.208,7.776,8.208c2.208,0,4.081-0.72,5.809-1.824l1.392,2.592c-2.016,1.297-4.512,2.4-7.681,2.4
		c-6.24,0-11.185-4.561-11.185-12.193C124.462,36.762,129.599,32.105,134.927,32.105z M140.784,42.619
		c0-4.752-2.112-7.393-5.761-7.393c-3.264,0-6.241,2.688-6.721,7.393H140.784z"/>
	<path fill="#FFFFFF" d="M158.447,32.105c2.688,0,4.464,1.008,6.528,2.688l-0.192-3.984v-8.977h3.984v34.179h-3.264l-0.336-2.736
		h-0.144c-1.824,1.776-4.32,3.312-7.056,3.312c-5.857,0-9.649-4.417-9.649-12.193C148.318,36.81,153.119,32.105,158.447,32.105z
		 M158.831,53.275c2.16,0,4.032-1.056,5.953-3.216V37.866c-1.968-1.776-3.744-2.448-5.665-2.448c-3.744,0-6.721,3.6-6.721,8.929
		C152.398,49.915,154.751,53.275,158.831,53.275z"/>
	<path fill="#FFFFFF" d="M186.333,21.833h3.936v9.312l-0.096,4.225c2.112-1.873,4.704-3.265,7.296-3.265
		c6.049,0,9.265,4.657,9.265,11.857c0,7.968-4.752,12.625-10.081,12.625c-2.16,0-4.608-1.057-6.673-2.88h-0.144l-0.336,2.304h-3.168
		V21.833z M195.982,53.275c3.84,0,6.673-3.504,6.673-9.265c0-5.137-1.728-8.593-6.145-8.593c-1.968,0-4.032,1.104-6.241,3.168
		v12.241C192.334,52.604,194.446,53.275,195.982,53.275z"/>
	<path fill="#FFFFFF" d="M212.974,62.78c2.64,0,4.32-2.112,5.28-4.992l0.528-1.729l-9.361-23.378h4.08l4.752,12.913
		c0.72,2.016,1.536,4.417,2.256,6.577h0.192c0.672-2.112,1.344-4.512,1.968-6.577l4.176-12.913h3.84l-8.785,25.25
		c-1.632,4.608-4.032,8.113-8.737,8.113c-1.056,0-1.968-0.192-2.736-0.48l0.768-3.12C211.677,62.588,212.397,62.78,212.974,62.78z"
		/>
</g>
</svg>
